SplineFontDB: 3.2
FontName: icon
FullName: icon
FamilyName: icon
Weight: Regular
ItalicAngle: 0
UnderlinePosition: 0
UnderlineWidth: 0
Ascent: 800
Descent: 200
InvalidEm: 0
LayerCount: 2
Layer: 0 1 "Back" 1
Layer: 1 1 "Fore" 0
XUID: [1021 428 1116682763 14481502]
OS2Version: 0
OS2_WeightWidthSlopeOnly: 0
OS2_UseTypoMetrics: 0
CreationTime: 1736075819
ModificationTime: 1736104467
PfmFamily: 17
TTFWeight: 400
TTFWidth: 5
LineGap: 90
VLineGap: 90
Panose: 2 0 5 3 0 0 0 0 0 0
OS2TypoAscent: 0
OS2TypoAOffset: 1
OS2TypoDescent: 0
OS2TypoDOffset: 1
OS2TypoLinegap: 90
OS2WinAscent: 0
OS2WinAOffset: 1
OS2WinDescent: 0
OS2WinDOffset: 1
HheadAscent: 0
HheadAOffset: 1
HheadDescent: 0
HheadDOffset: 1
OS2Vendor: 'PfEd'
DEI: 91125
Encoding: Custom
UnicodeInterp: none
NameList: AGL For New Fonts
DisplaySize: -48
AntiAlias: 1
FitToEm: 0
WinInfo: 0 16 4
BeginChars: 20 20

StartChar: bluesky
Encoding: 0 58993 0
Width: 857
Flags: W
LayerCount: 2
Fore
SplineSet
500 350 m 1,0,1
 538.583418969 425.00136133 538.583418969 425.00136133 621.134803018 525.988780927 c 128,-1,2
 703.686187067 626.976200523 703.686187067 626.976200523 783.25 683.208007812 c 0,3,4
 822.168304512 710.669411809 822.168304512 710.669411809 852.836998565 725.683508158 c 128,-1,5
 883.505692619 740.697604507 883.505692619 740.697604507 904.60597934 742.799295187 c 128,-1,6
 925.706266061 744.900985866 925.706266061 744.900985866 937.400932892 742.89996934 c 128,-1,7
 949.095599723 740.898952813 949.095599723 740.898952813 962.416992188 734.875 c 0,8,9
 1000 717.881024605 1000 717.881024605 1000 642.958007812 c 0,10,11
 1000 614.726024513 1000 614.726024513 990.425651396 505.414249635 c 128,-1,12
 980.851302792 396.102474757 980.851302792 396.102474757 974 373.041992188 c 0,13,14
 957.775261126 318.574125821 957.775261126 318.574125821 914.677143317 283.875778193 c 128,-1,15
 871.579025507 249.177430565 871.579025507 249.177430565 818.892843663 237.791213994 c 128,-1,16
 766.206661818 226.404997423 766.206661818 226.404997423 708.041992188 232.875 c 0,17,18
 698.901706505 234.218557416 698.901706505 234.218557416 690.75 235.208007812 c 1,19,20
 699.370868568 233.834563453 699.370868568 233.834563453 708.041992188 232.875 c 0,21,22
 759.122362254 225.301632489 759.122362254 225.301632489 799.954799997 210.350171773 c 128,-1,23
 840.78723774 195.398711057 840.78723774 195.398711057 869.469012503 170.125414165 c 128,-1,24
 898.150787266 144.852117273 898.150787266 144.852117273 906.151221872 112.547359273 c 128,-1,25
 914.151656479 80.2426012727 914.151656479 80.2426012727 893.875356253 35.0426797898 c 128,-1,26
 873.599056027 -10.1572416932 873.599056027 -10.1572416932 822.208007812 -62.0419921875 c 1,27,28
 777.017816275 -101.506857776 777.017816275 -101.506857776 738.158767304 -120.092011275 c 128,-1,29
 699.299718332 -138.677164773 699.299718332 -138.677164773 671.853796855 -141.279993697 c 128,-1,30
 644.407875379 -143.882822621 644.407875379 -143.882822621 619.709927819 -126.690087672 c 128,-1,31
 595.011980258 -109.497352722 595.011980258 -109.497352722 580.416435729 -92.0236205514 c 128,-1,32
 565.8208912 -74.5498883809 565.8208912 -74.5498883809 550.238655659 -37.3902619439 c 128,-1,33
 534.656420118 -0.230635506821 534.656420118 -0.230635506821 527.865863144 21.5086607971 c 128,-1,34
 521.07530617 43.247957101 521.07530617 43.247957101 509.714889535 83.5889994552 c 0,35,36
 503.168729556 106.83453045 503.168729556 106.83453045 500 117.458007812 c 1,37,38
 499.862025039 116.995433195 499.862025039 116.995433195 499.584706831 116.065618806 c 0,39,40
 487.434141135 75.3262427271 487.434141135 75.3262427271 479.75402353 51.7642167991 c 128,-1,41
 472.073905925 28.2021908711 472.073905925 28.2021908711 454.216444989 -14.2704468976 c 128,-1,42
 436.358984053 -56.7430846664 436.358984053 -56.7430846664 420.093736936 -79.0323588759 c 128,-1,43
 403.828489818 -101.321633085 403.828489818 -101.321633085 377.194575259 -123.389297057 c 128,-1,44
 350.5606607 -145.456961028 350.5606607 -145.456961028 322.461598343 -145.41032861 c 128,-1,45
 294.362535985 -145.363696192 294.362535985 -145.363696192 255.703482076 -125.963231456 c 128,-1,46
 217.044428168 -106.562766721 217.044428168 -106.562766721 174.041992188 -62.0419921875 c 0,47,48
 119.166132787 -0.952408088437 119.166132787 -0.952408088437 98.5454370752 47.3488007487 c 128,-1,49
 77.9247413635 95.6500095859 77.9247413635 95.6500095859 85.7782504248 126.251238314 c 128,-1,50
 93.6317594861 156.852467042 93.6317594861 156.852467042 126.151749575 179.371535124 c 128,-1,51
 158.671739664 201.890603206 158.671739664 201.890603206 198.074562925 213.344050814 c 128,-1,52
 237.477386185 224.797498422 237.477386185 224.797498422 291.958007812 232.875 c 0,53,54
 301.510312796 233.975020958 301.510312796 233.975020958 309.25 235.208007812 c 1,55,56
 301.098293495 234.218557416 301.098293495 234.218557416 291.958007812 232.875 c 0,57,58
 233.783604975 226.425873126 233.783604975 226.425873126 181.104909671 237.809803766 c 128,-1,59
 128.426214366 249.193734406 128.426214366 249.193734406 85.3251033503 283.885183213 c 128,-1,60
 42.223992334 318.57663202 42.223992334 318.57663202 26 373.041992188 c 0,61,62
 19.1471168363 396.135216035 19.1471168363 396.135216035 9.57355841814 505.428564084 c 128,-1,63
 0 614.721912133 0 614.721912133 0 643 c 0,64,65
 0 717.896147765 0 717.896147765 37.5830078125 734.791992188 c 0,66,67
 50.8945333827 740.83136667 50.8945333827 740.83136667 62.5971593757 742.840218213 c 128,-1,68
 74.2997853688 744.849069756 74.2997853688 744.849069756 95.3959283928 742.747367236 c 128,-1,69
 116.492071417 740.645664716 116.492071417 740.645664716 147.161093702 725.62403169 c 128,-1,70
 177.830115987 710.602398664 177.830115987 710.602398664 216.75 683.125 c 0,71,72
 296.312564548 626.980129614 296.312564548 626.980129614 378.863760428 526.009795566 c 128,-1,73
 461.414956309 425.039461519 461.414956309 425.039461519 500 350 c 1,0,1
EndSplineSet
EndChar

StartChar: star
Encoding: 1 59392 1
Width: 928
Flags: W
LayerCount: 2
Fore
SplineSet
635 290 m 1,0,-1
 805 456 l 1,1,-1
 570 490 l 1,2,-1
 464 703 l 1,3,-1
 359 490 l 1,4,-1
 123 456 l 1,5,-1
 294 290 l 1,6,-1
 253 55 l 1,7,-1
 464 166 l 1,8,-1
 675 55 l 1,9,-1
 635 290 l 1,0,-1
929 489 m 0,10,11
 929 477 929 477 914 462 c 2,12,-1
 712 265 l 1,13,-1
 760 -14 l 2,14,15
 760 -18 760 -18 760 -26 c 0,16,17
 760 -54 760 -54 737 -54 c 0,18,19
 727 -54 727 -54 715 -47 c 2,20,-1
 464 85 l 1,21,-1
 214 -47 l 2,22,23
 202 -54 202 -54 191 -54 c 0,24,25
 180 -54 180 -54 174 -45 c 0,26,27
 168 -36 168 -36 168 -26 c 0,28,29
 168 -22 168 -22 169 -14 c 2,30,-1
 217 265 l 1,31,-1
 14 462 l 2,32,33
 0 477 0 477 0 489 c 0,34,35
 0 510 0 510 31 515 c 2,36,-1
 311 555 l 1,37,-1
 437 809 l 2,38,39
 448 832 448 832 464 832 c 0,40,41
 480 832 480 832 492 809 c 2,42,-1
 617 555 l 1,43,-1
 897 515 l 2,44,45
 929 510 929 510 929 489 c 0,10,11
EndSplineSet
EndChar

StartChar: rss
Encoding: 2 59393 2
Width: 785
Flags: W
LayerCount: 2
Fore
SplineSet
214 100 m 0,0,1
 214 55 214 55 183 24 c 0,2,3
 152 -7 152 -7 107 -7 c 0,4,5
 62 -7 62 -7 31 24 c 0,6,7
 0 55 0 55 0 100 c 0,8,9
 0 145 0 145 31 176 c 0,10,11
 62 207 62 207 107 207 c 0,12,13
 152 207 152 207 183 176 c 0,14,15
 214 145 214 145 214 100 c 0,0,1
500 31 m 0,16,17
 501 16 501 16 491 5 c 0,18,19
 481 -7 481 -7 464 -7 c 2,20,-1
 389 -7 l 2,21,22
 375 -7 375 -7 365 2 c 0,23,24
 355 11 355 11 354 25 c 0,25,26
 342 153 342 153 251 244 c 0,27,28
 160 335 160 335 32 347 c 0,29,30
 18 348 18 348 9 358 c 0,31,32
 0 368 0 368 0 382 c 2,33,-1
 0 457 l 2,34,35
 0 473 0 473 12 483 c 0,36,37
 21 493 21 493 36 493 c 2,38,-1
 39 493 l 1,39,40
 128 486 128 486 209 448 c 0,41,42
 290 410 290 410 354 347 c 0,43,44
 417 284 417 284 455 202 c 0,45,46
 493 120 493 120 500 31 c 0,16,17
786 30 m 0,47,48
 787 15 787 15 776 4 c 0,49,50
 766 -7 766 -7 750 -7 c 2,51,-1
 670 -7 l 2,52,53
 656 -7 656 -7 645 3 c 0,54,55
 634 13 634 13 635 26 c 0,56,57
 628 146 628 146 578 254 c 0,58,59
 528 362 528 362 449 442 c 0,60,61
 370 522 370 522 261 571 c 0,62,63
 152 620 152 620 34 628 c 0,64,65
 20 629 20 629 10 639 c 0,66,67
 0 649 0 649 0 663 c 2,68,-1
 0 743 l 2,69,70
 0 759 0 759 11 769 c 0,71,72
 21 779 21 779 36 779 c 2,73,-1
 37 779 l 1,74,75
 184 771 184 771 317 712 c 0,76,77
 450 653 450 653 555 548 c 0,78,79
 659 444 659 444 719 310 c 0,80,81
 779 176 779 176 786 30 c 0,47,48
EndSplineSet
EndChar

StartChar: posts
Encoding: 3 59394 3
Width: 857
Flags: W
LayerCount: 2
Fore
SplineSet
819 638 m 2,0,1
 835 622 835 622 846 596 c 0,2,3
 857 570 857 570 857 546 c 2,4,-1
 857 -96 l 2,5,6
 857 -119 857 -119 842 -134 c 0,7,8
 827 -149 827 -149 804 -150 c 2,9,-1
 54 -150 l 2,10,11
 31 -150 31 -150 16 -134 c 0,12,13
 1 -118 1 -118 0 -96 c 2,14,-1
 0 796 l 2,15,16
 0 819 0 819 16 834 c 0,17,18
 32 849 32 849 54 850 c 2,19,-1
 554 850 l 2,20,21
 576 850 576 850 603 839 c 0,22,23
 630 828 630 828 645 812 c 2,24,-1
 819 638 l 2,0,1
571 774 m 1,25,-1
 571 564 l 1,26,-1
 781 564 l 1,27,28
 776 581 776 581 769 587 c 2,29,-1
 594 762 l 2,30,31
 588 769 588 769 571 774 c 1,25,-1
786 -79 m 1,32,-1
 786 493 l 1,33,-1
 554 493 l 2,34,35
 531 493 531 493 516 509 c 0,36,37
 501 525 501 525 500 546 c 2,38,-1
 500 779 l 1,39,-1
 71 779 l 1,40,-1
 71 -79 l 1,41,-1
 786 -79 l 1,32,-1
214 404 m 2,42,43
 214 411 214 411 219 416 c 0,44,45
 224 421 224 421 232 421 c 2,46,-1
 625 421 l 2,47,48
 633 421 633 421 638 416 c 0,49,50
 643 411 643 411 643 404 c 2,51,-1
 643 368 l 2,52,53
 643 360 643 360 638 355 c 0,54,55
 633 350 633 350 625 350 c 2,56,-1
 232 350 l 2,57,58
 224 350 224 350 219 355 c 0,59,60
 214 360 214 360 214 368 c 2,61,-1
 214 404 l 2,42,43
625 279 m 2,62,63
 633 279 633 279 638 274 c 0,64,65
 643 269 643 269 643 261 c 2,66,-1
 643 225 l 2,67,68
 643 217 643 217 638 212 c 0,69,70
 633 207 633 207 625 207 c 2,71,-1
 232 207 l 2,72,73
 224 207 224 207 219 212 c 0,74,75
 214 217 214 217 214 225 c 2,76,-1
 214 261 l 2,77,78
 214 269 214 269 219 274 c 0,79,80
 224 279 224 279 232 279 c 2,81,-1
 625 279 l 2,62,63
625 136 m 2,82,83
 633 136 633 136 638 131 c 0,84,85
 643 126 643 126 643 118 c 2,86,-1
 643 82 l 2,87,88
 643 74 643 74 638 69 c 0,89,90
 633 64 633 64 625 64 c 2,91,-1
 232 64 l 2,92,93
 224 64 224 64 219 69 c 0,94,95
 214 74 214 74 214 82 c 2,96,-1
 214 118 l 2,97,98
 214 126 214 126 219 131 c 0,99,100
 224 136 224 136 232 136 c 2,101,-1
 625 136 l 2,82,83
EndSplineSet
EndChar

StartChar: location
Encoding: 4 59395 4
Width: 571
Flags: W
LayerCount: 2
Fore
SplineSet
429 493 m 0,0,1
 429 552 429 552 387 594 c 0,2,3
 345 636 345 636 286 636 c 0,4,5
 227 636 227 636 185 594 c 0,6,7
 143 552 143 552 143 493 c 0,8,9
 143 434 143 434 185 392 c 0,10,11
 227 350 227 350 286 350 c 0,12,13
 345 350 345 350 387 392 c 0,14,15
 429 434 429 434 429 493 c 0,0,1
571 493 m 0,16,17
 571 432 571 432 553 393 c 2,18,-1
 350 -39 l 2,19,20
 341 -57 341 -57 323 -68 c 0,21,22
 305 -79 305 -79 286 -79 c 0,23,24
 267 -79 267 -79 248 -68 c 0,25,26
 229 -57 229 -57 222 -39 c 2,27,-1
 18 393 l 2,28,29
 0 432 0 432 0 493 c 0,30,31
 0 611 0 611 84 695 c 0,32,33
 168 779 168 779 286 779 c 0,34,35
 404 779 404 779 488 695 c 0,36,37
 572 611 572 611 571 493 c 0,16,17
EndSplineSet
EndChar

StartChar: link
Encoding: 5 59396 5
Width: 800
Flags: W
LayerCount: 2
Fore
SplineSet
294 116 m 2,0,1
 308 130 308 130 328 130 c 0,2,3
 348 130 348 130 364 116 c 0,4,5
 396 82 396 82 364 46 c 1,6,-1
 322 6 l 2,7,8
 266 -50 266 -50 190 -50 c 0,9,10
 112 -50 112 -50 56 6 c 0,11,12
 0 62 0 62 0 138 c 0,13,14
 0 216 0 216 56 272 c 2,15,-1
 204 420 l 2,16,17
 274 488 274 488 348 497 c 0,18,19
 422 506 422 506 476 454 c 0,20,21
 492 438 492 438 492 418 c 0,22,23
 492 398 492 398 476 382 c 0,24,25
 440 350 440 350 406 382 c 0,26,27
 356 430 356 430 274 348 c 2,28,-1
 126 202 l 2,29,30
 100 176 100 176 100 138 c 0,31,32
 100 100 100 100 126 76 c 0,33,34
 152 50 152 50 189 50 c 0,35,36
 226 50 226 50 252 76 c 2,37,-1
 294 116 l 2,0,1
744 690 m 0,38,39
 800 634 800 634 800 558 c 0,40,41
 800 480 800 480 744 424 c 2,42,-1
 586 266 l 2,43,44
 512 194 512 194 436 194 c 0,45,46
 374 194 374 194 324 244 c 0,47,48
 310 258 310 258 310 278 c 0,49,50
 310 298 310 298 324 314 c 0,51,52
 338 328 338 328 359 328 c 0,53,54
 380 328 380 328 394 314 c 0,55,56
 444 266 444 266 516 338 c 2,57,-1
 674 494 l 2,58,59
 702 522 702 522 702 558 c 0,60,61
 702 596 702 596 674 620 c 1,62,63
 650 646 650 646 618 651 c 0,64,65
 586 656 586 656 558 630 c 2,66,-1
 508 580 l 2,67,68
 492 566 492 566 472 566 c 0,69,70
 452 566 452 566 438 580 c 0,71,72
 404 614 404 614 438 650 c 2,73,-1
 488 700 l 2,74,75
 542 754 542 754 615 751 c 0,76,77
 688 748 688 748 744 690 c 0,38,39
EndSplineSet
EndChar

StartChar: googleplus
Encoding: 6 59397 6
Width: 896
Flags: W
LayerCount: 2
Fore
SplineSet
48 572 m 0,0,1
 48 630 48 630 73 674 c 0,2,3
 98 718 98 718 129 739 c 0,4,5
 160 760 160 760 198 773 c 0,6,7
 236 786 236 786 254 788 c 0,8,9
 272 790 272 790 280 790 c 2,10,-1
 510 790 l 1,11,-1
 510 786 l 2,12,13
 510 764 510 764 432 750 c 1,14,15
 404 750 404 750 394 744 c 1,16,17
 434 724 434 724 448 688 c 0,18,19
 462 652 462 652 462 592 c 0,20,21
 462 490 462 490 394 434 c 1,22,23
 356 396 356 396 356 380 c 0,24,25
 356 362 356 362 406 316 c 0,26,27
 510 226 510 226 510 138 c 0,28,29
 510 -2 510 -2 394 -56 c 0,30,31
 326 -90 326 -90 244 -90 c 2,32,-1
 240 -90 l 1,33,-1
 236 -88 l 2,34,35
 234 -90 234 -90 232 -90 c 0,36,37
 208 -90 208 -90 178 -85 c 0,38,39
 148 -80 148 -80 103 -64 c 0,40,41
 58 -48 58 -48 29 -7 c 0,42,43
 0 34 0 34 0 96 c 0,44,45
 0 156 0 156 32 197 c 0,46,47
 64 238 64 238 115 254 c 0,48,49
 166 270 166 270 203 276 c 0,50,51
 240 282 240 282 274 282 c 2,52,-1
 276 282 l 1,53,54
 260 304 260 304 252 329 c 0,55,56
 244 354 244 354 244 368 c 2,57,-1
 246 382 l 1,58,-1
 232 382 l 2,59,60
 168 382 168 382 122 412 c 0,61,62
 48 456 48 456 48 572 c 0,0,1
418 120 m 0,63,64
 414 172 414 172 375 204 c 0,65,66
 336 236 336 236 272 236 c 2,67,-1
 256 236 l 2,68,69
 192 234 192 234 142 190 c 0,70,71
 96 148 96 148 100 96 c 0,72,73
 104 44 104 44 153 16 c 0,74,75
 202 -12 202 -12 272 -8 c 0,76,77
 340 -4 340 -4 381 32 c 0,78,79
 422 68 422 68 418 120 c 0,63,64
358 620 m 0,80,81
 328 728 328 728 236 728 c 0,82,83
 224 728 224 728 216 726 c 0,84,85
 176 714 176 714 158 664 c 0,86,87
 142 614 142 614 156 558 c 0,88,89
 170 506 170 506 203 473 c 0,90,91
 236 440 236 440 274 440 c 0,92,93
 286 440 286 440 292 442 c 0,94,95
 334 454 334 454 355 507 c 0,96,97
 376 560 376 560 358 620 c 0,80,81
746 446 m 1,98,-1
 896 446 l 1,99,-1
 896 352 l 1,100,-1
 746 352 l 1,101,-1
 746 202 l 1,102,-1
 652 202 l 1,103,-1
 652 352 l 1,104,-1
 502 352 l 1,105,-1
 502 446 l 1,106,-1
 652 446 l 1,107,-1
 652 596 l 1,108,-1
 746 596 l 1,109,-1
 746 446 l 1,98,-1
EndSplineSet
EndChar

StartChar: facebook
Encoding: 7 59398 7
Width: 500
Flags: W
LayerCount: 2
Fore
SplineSet
500 644 m 1,0,-1
 358 644 l 2,1,2
 344 644 344 644 333 629 c 0,3,4
 322 614 322 614 322 592 c 2,5,-1
 322 490 l 1,6,-1
 500 490 l 1,7,-1
 500 342 l 1,8,-1
 322 342 l 1,9,-1
 322 -100 l 1,10,-1
 152 -100 l 1,11,-1
 152 342 l 1,12,-1
 0 342 l 1,13,-1
 0 490 l 1,14,-1
 152 490 l 1,15,-1
 152 576 l 2,16,17
 152 670 152 670 211 735 c 0,18,19
 270 800 270 800 358 800 c 2,20,-1
 500 800 l 1,21,-1
 500 644 l 1,0,-1
EndSplineSet
EndChar

StartChar: arrow-right
Encoding: 8 59399 8
Width: 495
Flags: W
LayerCount: 2
Fore
SplineSet
0 0 m 0,0,1
 0 25 0 25 18 43 c 2,2,-1
 323 347 l 1,3,-1
 18 651 l 2,4,5
 0 669 0 669 0 695 c 0,6,7
 0 721 0 721 18 738 c 0,8,9
 36 755 36 755 62 756 c 0,10,11
 88 757 88 757 105 738 c 2,12,-1
 495 347 l 1,13,-1
 105 -44 l 2,14,15
 86 -62 86 -62 62 -62 c 0,16,17
 38 -62 38 -62 18 -44 c 0,18,19
 0 -26 0 -26 0 0 c 0,0,1
EndSplineSet
EndChar

StartChar: arrow-left
Encoding: 9 59400 9
Width: 495
Flags: W
LayerCount: 2
Fore
SplineSet
0 353 m 1,0,-1
 391 744 l 2,1,2
 409 762 409 762 434 762 c 0,3,4
 458 762 458 762 477 744 c 0,5,6
 495 726 495 726 495 700 c 0,7,8
 495 674 495 674 477 657 c 2,9,-1
 173 353 l 1,10,-1
 477 48 l 2,11,12
 495 31 495 31 495 5 c 0,13,14
 495 -21 495 -21 477 -38 c 0,15,16
 459 -56 459 -56 434 -56 c 0,17,18
 409 -56 409 -56 391 -38 c 2,19,-1
 0 353 l 1,0,-1
EndSplineSet
EndChar

StartChar: twitter
Encoding: 10 59401 10
Width: 920
Flags: W
LayerCount: 2
Fore
SplineSet
920 636 m 1,0,1
 884 582 884 582 826 538 c 1,2,-1
 826 514 l 2,3,4
 826 384 826 384 766 264 c 0,5,6
 706 144 706 144 580 61 c 0,7,8
 454 -22 454 -22 290 -22 c 0,9,10
 130 -22 130 -22 0 62 c 1,11,12
 14 60 14 60 46 60 c 0,13,14
 178 60 178 60 280 140 c 1,15,16
 218 142 218 142 170 178 c 0,17,18
 122 214 122 214 104 272 c 1,19,20
 114 268 114 268 138 268 c 0,21,22
 164 268 164 268 188 274 c 1,23,24
 122 288 122 288 80 340 c 0,25,26
 38 392 38 392 38 460 c 2,27,-1
 38 462 l 1,28,29
 74 442 74 442 122 438 c 1,30,31
 38 496 38 496 38 596 c 0,32,33
 38 644 38 644 64 690 c 1,34,35
 218 502 218 502 454 494 c 1,36,37
 448 512 448 512 448 536 c 0,38,39
 448 614 448 614 503 669 c 0,40,41
 558 724 558 724 638 724 c 0,42,43
 720 724 720 724 774 666 c 1,44,45
 834 678 834 678 894 710 c 1,46,47
 874 644 874 644 812 606 c 1,48,49
 868 614 868 614 920 636 c 1,0,1
EndSplineSet
EndChar

StartChar: menu
Encoding: 11 59402 11
Width: 857
Flags: W
LayerCount: 2
Fore
SplineSet
857 100 m 2,0,-1
 857 29 l 2,1,2
 857 14 857 14 847 4 c 0,3,4
 837 -6 837 -6 821 -7 c 2,5,-1
 36 -7 l 2,6,7
 21 -7 21 -7 11 4 c 0,8,9
 1 15 1 15 0 29 c 2,10,-1
 0 100 l 2,11,12
 0 115 0 115 11 125 c 0,13,14
 22 135 22 135 36 136 c 2,15,-1
 821 136 l 2,16,17
 836 136 836 136 847 125 c 0,18,19
 858 114 858 114 857 100 c 2,0,-1
857 386 m 2,20,-1
 857 314 l 2,21,22
 857 300 857 300 847 289 c 0,23,24
 837 278 837 278 821 279 c 2,25,-1
 36 279 l 2,26,27
 21 279 21 279 11 289 c 0,28,29
 1 299 1 299 0 314 c 2,30,-1
 0 386 l 2,31,32
 0 400 0 400 11 411 c 0,33,34
 22 422 22 422 36 421 c 2,35,-1
 821 421 l 2,36,37
 836 421 836 421 847 411 c 0,38,39
 858 401 858 401 857 386 c 2,20,-1
857 671 m 2,40,-1
 857 600 l 2,41,42
 857 586 857 586 847 575 c 0,43,44
 837 564 837 564 821 564 c 2,45,-1
 36 564 l 2,46,47
 21 564 21 564 11 575 c 0,48,49
 1 586 1 586 0 600 c 2,50,-1
 0 671 l 2,51,52
 0 686 0 686 11 697 c 0,53,54
 22 708 22 708 36 707 c 2,55,-1
 821 707 l 2,56,57
 836 707 836 707 847 697 c 0,58,59
 858 687 858 687 857 671 c 2,40,-1
EndSplineSet
EndChar

StartChar: globe
Encoding: 12 59403 12
Width: 857
Flags: W
LayerCount: 2
Fore
SplineSet
429 779 m 0,0,1
 545 779 545 779 644 721 c 0,2,3
 743 663 743 663 800 565 c 0,4,5
 857 467 857 467 857 350 c 0,6,7
 857 233 857 233 800 135 c 0,8,9
 743 37 743 37 644 -21 c 0,10,11
 545 -79 545 -79 429 -79 c 0,12,13
 313 -79 313 -79 213 -21 c 0,14,15
 113 37 113 37 58 135 c 0,16,17
 3 233 3 233 0 350 c 0,18,19
 -3 467 -3 467 58 565 c 0,20,21
 119 663 119 663 213 721 c 0,22,23
 307 779 307 779 429 779 c 0,0,1
582 488 m 0,24,25
 580 487 580 487 576 483 c 0,26,27
 572 479 572 479 569 477 c 1,28,29
 570 477 570 477 571 480 c 0,30,31
 572 483 572 483 574 486 c 0,32,33
 576 489 576 489 576 490 c 0,34,35
 579 494 579 494 588 498 c 0,36,37
 596 502 596 502 617 505 c 0,38,39
 636 510 636 510 646 499 c 1,40,41
 645 500 645 500 651 506 c 0,42,43
 657 512 657 512 659 513 c 0,44,45
 661 514 661 514 667 516 c 0,46,47
 673 518 673 518 676 520 c 2,48,-1
 677 532 l 1,49,50
 670 531 670 531 667 536 c 0,51,52
 664 541 664 541 664 548 c 1,53,54
 664 546 664 546 660 543 c 1,55,56
 660 547 660 547 658 548 c 0,57,58
 656 549 656 549 651 547 c 0,59,60
 646 545 646 545 646 546 c 0,61,62
 641 548 641 548 638 551 c 0,63,64
 635 554 635 554 633 560 c 0,65,66
 631 566 631 566 631 568 c 0,67,68
 630 571 630 571 626 574 c 0,69,70
 622 577 622 577 621 580 c 0,71,72
 620 581 620 581 619 583 c 0,73,74
 618 585 618 585 618 587 c 0,75,76
 618 589 618 589 615 590 c 2,77,-1
 612 591 l 1,78,-1
 608 588 l 1,79,-1
 604 583 l 1,80,-1
 602 580 l 2,81,82
 600 581 600 581 598 581 c 0,83,84
 596 581 596 581 596 580 c 0,85,86
 596 579 596 579 593 579 c 0,87,88
 590 579 590 579 590 577 c 0,89,90
 589 575 589 575 586 575 c 0,91,92
 583 575 583 575 581 574 c 1,93,94
 589 577 589 577 580 580 c 0,95,96
 575 582 575 582 571 582 c 1,97,98
 577 584 577 584 576 588 c 0,99,100
 575 592 575 592 571 596 c 1,101,-1
 574 596 l 1,102,103
 573 598 573 598 569 601 c 0,104,105
 565 604 565 604 559 606 c 0,106,107
 553 608 553 608 552 609 c 0,108,109
 547 612 547 612 533 614 c 0,110,111
 519 616 519 616 515 615 c 0,112,113
 512 611 512 611 512 609 c 0,114,115
 512 607 512 607 514 601 c 0,116,117
 516 595 516 595 516 594 c 0,118,119
 517 591 517 591 513 587 c 0,120,121
 509 583 509 583 510 580 c 0,122,123
 510 576 510 576 517 571 c 0,124,125
 524 566 524 566 523 559 c 0,126,127
 521 555 521 555 514 550 c 0,128,129
 507 545 507 545 505 544 c 0,130,131
 502 539 502 539 504 533 c 0,132,133
 506 527 506 527 510 524 c 0,134,135
 511 523 511 523 511 522 c 0,136,137
 511 521 511 521 509 519 c 0,138,139
 507 517 507 517 506 517 c 0,140,141
 505 517 505 517 502 515 c 2,142,-1
 501 514 l 2,143,144
 494 511 494 511 489 517 c 0,145,146
 484 523 484 523 482 532 c 0,147,148
 478 546 478 546 473 549 c 0,149,150
 460 553 460 553 457 548 c 1,151,152
 454 555 454 555 434 563 c 0,153,154
 420 568 420 568 401 565 c 1,155,156
 405 565 405 565 401 573 c 0,157,158
 397 582 397 582 391 580 c 1,159,160
 392 583 392 583 393 590 c 0,161,162
 394 597 394 597 393 597 c 1,163,164
 395 605 395 605 400 610 c 0,165,166
 401 611 401 611 404 615 c 0,167,168
 407 619 407 619 409 622 c 0,169,170
 411 625 411 625 410 626 c 1,171,172
 429 623 429 623 438 632 c 0,173,174
 440 635 440 635 444 641 c 0,175,176
 448 647 448 647 450 651 c 0,177,178
 455 654 455 654 458 654 c 0,179,180
 461 654 461 654 466 651 c 0,181,182
 471 648 471 648 474 648 c 0,183,184
 482 647 482 647 482 654 c 0,185,186
 482 661 482 661 478 665 c 1,187,188
 485 665 485 665 480 675 c 0,189,190
 478 679 478 679 475 680 c 0,191,192
 469 682 469 682 460 677 c 0,193,194
 456 675 456 675 462 673 c 1,195,196
 461 673 461 673 456 667 c 0,197,198
 451 661 451 661 447 657 c 0,199,200
 443 653 443 653 438 660 c 2,201,-1
 435 667 l 1,202,-1
 430 675 l 1,203,204
 425 675 425 675 421 666 c 1,205,206
 422 671 422 671 415 675 c 0,207,208
 408 679 408 679 401 679 c 1,209,210
 412 686 412 686 397 694 c 0,211,212
 393 697 393 697 385 697 c 0,213,214
 377 697 377 697 374 695 c 0,215,216
 372 691 372 691 371 688 c 0,217,218
 370 685 370 685 374 684 c 0,219,220
 378 683 378 683 380 681 c 0,221,222
 382 679 382 679 386 679 c 0,223,224
 390 679 390 679 391 677 c 0,225,226
 399 671 399 671 396 669 c 0,227,228
 395 669 395 669 391 667 c 0,229,230
 387 665 387 665 385 665 c 0,231,232
 383 665 383 665 381 663 c 0,233,234
 380 660 380 660 381 655 c 0,235,236
 382 650 382 650 380 647 c 1,237,238
 377 650 377 650 375 657 c 0,239,240
 373 664 373 664 371 666 c 1,241,242
 375 661 375 661 357 663 c 2,243,-1
 352 663 l 2,244,245
 349 663 349 663 343 662 c 0,246,247
 337 661 337 661 331 661 c 0,248,249
 325 661 325 661 324 666 c 0,250,251
 321 670 321 670 324 677 c 0,252,253
 324 679 324 679 326 678 c 1,254,255
 324 680 324 680 320 683 c 0,256,257
 316 686 316 686 314 688 c 0,258,259
 289 680 289 680 262 665 c 1,260,261
 265 665 265 665 268 666 c 0,262,263
 271 667 271 667 276 670 c 2,264,-1
 281 673 l 2,265,266
 300 680 300 680 305 677 c 1,267,-1
 308 679 l 1,268,269
 315 670 315 670 319 665 c 1,270,271
 315 668 315 668 302 666 c 0,272,273
 291 663 291 663 290 659 c 0,274,275
 294 653 294 653 292 649 c 1,276,277
 290 651 290 651 286 655 c 0,278,279
 282 659 282 659 278 661 c 0,280,281
 274 663 274 663 270 664 c 0,282,283
 261 664 261 664 257 663 c 0,284,285
 176 618 176 618 126 539 c 1,286,287
 130 535 130 535 133 535 c 0,288,289
 135 534 135 534 136 530 c 0,290,291
 137 526 137 526 137 524 c 0,292,293
 137 522 137 522 143 525 c 1,294,295
 148 521 148 521 145 515 c 1,296,297
 146 515 146 515 170 500 c 0,298,299
 180 490 180 490 181 488 c 0,300,301
 183 482 183 482 176 478 c 0,302,303
 175 479 175 479 171 483 c 0,304,305
 167 487 167 487 166 485 c 0,306,307
 164 482 164 482 166 475 c 0,308,309
 168 468 168 468 172 468 c 1,310,311
 168 468 168 468 167 459 c 0,312,313
 166 450 166 450 165 439 c 0,314,315
 164 428 164 428 165 426 c 2,316,-1
 166 425 l 1,317,318
 164 419 164 419 169 406 c 0,319,320
 174 393 174 393 181 395 c 1,321,322
 174 394 174 394 192 371 c 0,323,324
 195 367 195 367 196 366 c 0,325,326
 198 365 198 365 203 362 c 0,327,328
 208 359 208 359 212 356 c 0,329,330
 216 353 216 353 217 351 c 0,331,332
 219 348 219 348 223 338 c 0,333,334
 227 328 227 328 231 325 c 0,335,336
 229 322 229 322 236 314 c 0,337,338
 243 306 243 306 242 301 c 0,339,340
 241 301 241 301 240 300 c 0,341,342
 239 299 239 299 239 300 c 1,343,344
 241 296 241 296 248 292 c 0,345,346
 255 288 255 288 256 285 c 0,347,348
 257 283 257 283 257 279 c 0,349,350
 257 275 257 275 259 273 c 0,351,352
 261 271 261 271 263 272 c 0,353,354
 265 283 265 283 250 307 c 0,355,356
 242 320 242 320 241 323 c 0,357,358
 239 325 239 325 237 331 c 0,359,360
 235 337 235 337 235 339 c 1,361,362
 236 339 236 339 238 339 c 0,363,364
 240 339 240 339 243 337 c 0,365,366
 246 335 246 335 247 334 c 2,367,-1
 248 333 l 2,368,369
 247 329 247 329 249 323 c 0,370,371
 251 317 251 317 256 313 c 0,372,373
 261 309 261 309 266 302 c 0,374,375
 271 295 271 295 272 295 c 0,376,377
 276 291 276 291 280 284 c 0,378,379
 284 277 284 277 280 276 c 1,380,381
 285 276 285 276 291 271 c 0,382,383
 297 266 297 266 301 260 c 0,384,385
 304 255 304 255 305 245 c 0,386,387
 306 235 306 235 308 232 c 0,388,389
 309 228 309 228 313 224 c 0,390,391
 317 220 317 220 320 219 c 2,392,-1
 329 214 l 1,393,-1
 336 211 l 2,394,395
 339 209 339 209 346 205 c 0,396,397
 353 201 353 201 358 198 c 0,398,399
 364 196 364 196 367 196 c 0,400,401
 370 196 370 196 375 197 c 0,402,403
 380 198 380 198 383 199 c 0,404,405
 391 200 391 200 399 191 c 0,406,407
 407 182 407 182 411 179 c 0,408,409
 431 169 431 169 441 173 c 1,410,411
 440 173 440 173 442 169 c 0,412,413
 444 165 444 165 446 160 c 0,414,415
 448 155 448 155 451 152 c 0,416,417
 454 149 454 149 454 147 c 0,418,419
 457 144 457 144 464 139 c 0,420,421
 471 134 471 134 474 131 c 1,422,423
 478 133 478 133 478 136 c 1,424,425
 477 131 477 131 482 125 c 0,426,427
 487 119 487 119 492 119 c 0,428,429
 500 121 500 121 500 137 c 1,430,431
 483 129 483 129 473 147 c 2,432,-1
 471 150 l 1,433,-1
 469 155 l 1,434,-1
 468 159 l 1,435,-1
 468 164 l 1,436,-1
 470 165 l 2,437,438
 475 165 475 165 476 167 c 0,439,440
 477 169 477 169 475 174 c 0,441,442
 473 179 473 179 473 182 c 0,443,444
 472 186 472 186 467 193 c 0,445,446
 462 200 462 200 460 201 c 0,447,448
 457 196 457 196 451 197 c 0,449,450
 445 198 445 198 442 202 c 1,451,452
 442 201 442 201 441 199 c 0,453,454
 440 197 440 197 440 195 c 1,455,456
 433 195 433 195 432 195 c 1,457,458
 433 197 433 197 433 205 c 0,459,460
 433 213 433 213 435 218 c 0,461,462
 436 220 436 220 438 224 c 0,463,464
 440 228 440 228 443 233 c 0,465,466
 446 238 446 238 445 240 c 0,467,468
 444 242 444 242 442 245 c 0,469,470
 440 248 440 248 433 246 c 0,471,472
 422 246 422 246 418 235 c 0,473,474
 417 233 417 233 416 229 c 0,475,476
 415 225 415 225 414 223 c 0,477,478
 413 221 413 221 409 219 c 0,479,480
 405 217 405 217 395 218 c 0,481,482
 385 219 385 219 382 221 c 0,483,484
 374 225 374 225 369 237 c 0,485,486
 364 249 364 249 364 257 c 0,487,488
 364 263 364 263 365 272 c 0,489,490
 366 281 366 281 367 286 c 0,491,492
 368 291 368 291 364 300 c 0,493,494
 366 301 366 301 369 305 c 0,495,496
 372 309 372 309 374 311 c 0,497,498
 376 312 376 312 377 312 c 0,499,500
 378 312 378 312 380 312 c 0,501,502
 382 312 382 312 382 313 c 0,503,504
 382 314 382 314 383 316 c 0,505,506
 383 317 383 317 381 318 c 0,507,508
 380 319 380 319 379 319 c 1,509,510
 383 318 383 318 395 320 c 0,511,512
 407 322 407 322 410 319 c 0,513,514
 419 313 419 313 422 320 c 0,515,516
 422 321 422 321 421 326 c 0,517,518
 420 331 420 331 421 333 c 1,519,520
 424 318 424 318 437 328 c 0,521,522
 439 327 439 327 446 325 c 0,523,524
 453 323 453 323 455 323 c 0,525,526
 457 322 457 322 459 320 c 0,527,528
 461 318 461 318 462 317 c 0,529,530
 463 316 463 316 465 317 c 0,531,532
 467 318 467 318 470 321 c 1,533,534
 475 313 475 313 477 308 c 0,535,536
 483 285 483 285 487 283 c 0,537,538
 491 281 491 281 493 282 c 0,539,540
 495 283 495 283 496 287 c 0,541,542
 497 291 497 291 496 295 c 0,543,544
 495 299 495 299 495 302 c 2,545,-1
 494 307 l 1,546,-1
 494 317 l 1,547,-1
 494 321 l 1,548,549
 486 323 486 323 484 328 c 0,550,551
 482 333 482 333 484 338 c 0,552,553
 486 343 486 343 493 348 c 0,554,555
 493 349 493 349 497 350 c 0,556,557
 501 351 501 351 506 354 c 0,558,559
 511 357 511 357 513 358 c 0,560,561
 525 369 525 369 521 378 c 1,562,563
 525 378 525 378 527 383 c 1,564,-1
 525 385 l 1,565,-1
 520 387 l 1,566,-1
 518 389 l 1,567,568
 523 391 523 391 519 397 c 1,569,570
 522 399 522 399 523 404 c 0,571,572
 524 409 524 409 527 409 c 0,573,574
 532 403 532 403 539 408 c 0,575,576
 544 413 544 413 540 417 c 1,577,578
 542 421 542 421 551 423 c 0,579,580
 560 425 560 425 561 428 c 0,581,582
 565 427 565 427 566 429 c 0,583,584
 567 431 567 431 566 436 c 0,585,586
 565 441 565 441 568 443 c 0,587,588
 570 445 570 445 577 448 c 0,589,590
 584 451 584 451 584 450 c 1,591,-1
 593 457 l 2,592,593
 595 459 595 459 593 459 c 1,594,595
 603 458 603 458 611 465 c 0,596,597
 616 471 616 471 607 476 c 1,598,599
 609 480 609 480 606 481 c 0,600,601
 603 482 603 482 597 485 c 1,602,603
 599 485 599 485 604 485 c 0,604,605
 609 485 609 485 609 486 c 0,606,607
 618 491 618 491 606 495 c 0,608,609
 596 497 596 497 582 488 c 0,24,25
491 -2 m 1,610,611
 606 19 606 19 686 104 c 0,612,613
 685 106 685 106 679 106 c 0,614,615
 673 106 673 106 672 108 c 0,616,617
 662 112 662 112 659 113 c 0,618,619
 660 117 660 117 658 120 c 0,620,621
 656 123 656 123 653 125 c 0,622,623
 650 127 650 127 646 130 c 0,624,625
 642 133 642 133 640 134 c 0,626,627
 639 135 639 135 636 137 c 0,628,629
 633 139 633 139 632 140 c 0,630,631
 631 141 631 141 628 142 c 0,632,633
 625 143 625 143 623 144 c 0,634,635
 621 145 621 145 618 143 c 2,636,-1
 616 142 l 2,637,638
 614 142 614 142 613 141 c 0,639,640
 612 140 612 140 610 139 c 2,641,-1
 608 138 l 1,642,-1
 608 136 l 1,643,644
 596 146 596 146 588 149 c 0,645,646
 585 149 585 149 582 152 c 0,647,648
 579 155 579 155 576 156 c 0,649,650
 573 157 573 157 570 156 c 0,651,652
 567 155 567 155 564 153 c 0,653,654
 561 150 561 150 560 144 c 0,655,656
 559 138 559 138 559 137 c 1,657,658
 555 140 555 140 559 147 c 0,659,660
 563 154 563 154 560 157 c 0,661,662
 559 160 559 160 554 159 c 0,663,664
 549 158 549 158 548 157 c 0,665,666
 547 156 547 156 541 152 c 0,667,668
 535 148 535 148 536 149 c 0,669,670
 537 150 537 150 532 146 c 0,671,672
 527 142 527 142 527 141 c 0,673,674
 525 139 525 139 523 135 c 0,675,676
 521 131 521 131 521 129 c 1,677,678
 520 131 520 131 514 132 c 0,679,680
 508 133 508 133 509 135 c 1,681,682
 510 130 510 130 511 116 c 0,683,684
 512 102 512 102 514 94 c 0,685,686
 518 77 518 77 507 68 c 0,687,688
 492 54 492 54 491 45 c 0,689,690
 489 33 489 33 498 31 c 0,691,692
 498 27 498 27 493 19 c 0,693,694
 488 11 488 11 489 7 c 0,695,696
 489 4 489 4 491 -2 c 1,610,611
EndSplineSet
EndChar

StartChar: search
Encoding: 13 59404 13
Width: 928
Flags: W
LayerCount: 2
Fore
SplineSet
643 386 m 0,0,1
 643 489 643 489 570 562 c 0,2,3
 497 635 497 635 393 636 c 0,4,5
 289 637 289 637 216 562 c 0,6,7
 143 487 143 487 143 386 c 0,8,9
 143 285 143 285 216 209 c 0,10,11
 289 133 289 133 393 136 c 0,12,13
 497 139 497 139 570 209 c 0,14,15
 643 279 643 279 643 386 c 0,0,1
929 -79 m 0,16,17
 929 -108 929 -108 907 -129 c 0,18,19
 885 -150 885 -150 857 -150 c 0,20,21
 827 -150 827 -150 807 -129 c 2,22,-1
 616 62 l 1,23,24
 516 -7 516 -7 393 -7 c 0,25,26
 313 -7 313 -7 240 24 c 0,27,28
 167 55 167 55 115 108 c 0,29,30
 63 161 63 161 31 233 c 0,31,32
 -1 305 -1 305 0 386 c 0,33,34
 1 467 1 467 31 538 c 0,35,36
 61 609 61 609 115 664 c 0,37,38
 169 719 169 719 240 748 c 0,39,40
 311 777 311 777 393 779 c 0,41,42
 475 781 475 781 546 748 c 0,43,44
 617 715 617 715 671 664 c 0,45,46
 725 613 725 613 755 538 c 0,47,48
 785 463 785 463 786 386 c 0,49,50
 786 263 786 263 717 163 c 1,51,-1
 908 -28 l 2,52,53
 929 -49 929 -49 929 -79 c 0,16,17
EndSplineSet
EndChar

StartChar: linkedin
Encoding: 14 59405 14
Width: 900
Flags: W
LayerCount: 2
Fore
SplineSet
204 698 m 0,0,1
 204 658 204 658 175 630 c 0,2,3
 146 602 146 602 100 602 c 0,4,5
 56 602 56 602 28 630 c 0,6,7
 0 658 0 658 0 698 c 0,8,9
 0 740 0 740 28 767 c 0,10,11
 56 794 56 794 102 794 c 0,12,13
 148 794 148 794 175 767 c 0,14,15
 202 740 202 740 204 698 c 0,0,1
6 -92 m 1,16,-1
 6 526 l 1,17,-1
 198 526 l 1,18,-1
 198 -92 l 1,19,-1
 6 -92 l 1,16,-1
312 328 m 2,20,21
 312 414 312 414 308 526 c 1,22,-1
 474 526 l 1,23,-1
 484 440 l 1,24,-1
 488 440 l 1,25,26
 548 540 548 540 678 540 c 0,27,28
 778 540 778 540 839 473 c 0,29,30
 900 406 900 406 900 274 c 2,31,-1
 900 -92 l 1,32,-1
 708 -92 l 1,33,-1
 708 250 l 2,34,35
 708 384 708 384 610 384 c 0,36,37
 540 384 540 384 512 312 c 0,38,39
 506 300 506 300 506 264 c 2,40,-1
 506 -92 l 1,41,-1
 312 -92 l 1,42,-1
 312 328 l 2,20,21
EndSplineSet
EndChar

StartChar: github
Encoding: 15 59406 15
Width: 998
Flags: W
LayerCount: 2
Fore
SplineSet
0 351 m 0,0,1
 0 453 0 453 40 545 c 0,2,3
 119 731 119 731 305 810 c 0,4,5
 397 850 397 850 499 850 c 0,6,7
 601 850 601 850 693 810 c 0,8,9
 877 732 877 732 958 545 c 0,10,11
 998 450 998 450 998 351 c 0,12,13
 998 252 998 252 958 157 c 0,14,15
 877 -31 877 -31 693 -110 c 0,16,17
 601 -150 601 -150 499 -150 c 0,18,19
 397 -150 397 -150 305 -110 c 0,20,21
 119 -30 119 -30 40 157 c 0,22,23
 0 249 0 249 0 351 c 0,0,1
78 351 m 0,24,25
 78 210 78 210 162 99 c 0,26,27
 245 -10 245 -10 379 -56 c 1,28,-1
 379 24 l 2,29,30
 379 84 379 84 419 111 c 1,31,32
 399 112 399 112 372 118 c 0,33,34
 321 127 321 127 285 150 c 0,35,36
 194 205 194 205 194 349 c 0,37,38
 194 424 194 424 244 477 c 1,39,40
 221 536 221 536 249 605 c 1,41,-1
 269 605 l 2,42,43
 279 605 279 605 294 600 c 0,44,45
 333 588 333 588 381 556 c 1,46,47
 442 572 442 572 501 572 c 0,48,49
 560 572 560 572 622 556 c 1,50,51
 661 582 661 582 695 596 c 0,52,53
 727 608 727 608 741 606 c 2,54,-1
 753 605 l 1,55,56
 780 536 780 536 758 477 c 1,57,58
 808 424 808 424 808 349 c 0,59,60
 808 237 808 237 753 180 c 0,61,62
 723 148 723 148 674 130 c 0,63,64
 633 115 633 115 583 111 c 1,65,66
 624 82 624 82 624 24 c 2,67,-1
 624 -56 l 1,68,69
 753 -10 753 -10 837 101 c 0,70,71
 919 211 919 211 919 351 c 0,72,73
 919 436 919 436 886 515 c 0,74,75
 854 591 854 591 796 649 c 0,76,77
 740 705 740 705 662 738 c 0,78,79
 582 772 582 772 499 772 c 0,80,81
 417 772 417 772 335 738 c 0,82,83
 260 706 260 706 201 649 c 0,84,85
 145 591 145 591 111 515 c 0,86,87
 78 436 78 436 78 351 c 0,24,25
EndSplineSet
EndChar

StartChar: reddit
Encoding: 16 59407 16
Width: 1000
Flags: W
LayerCount: 2
Fore
SplineSet
1000 378 m 0,0,1
 1000 346 1000 346 984 319 c 0,2,3
 968 292 968 292 939 279 c 1,4,5
 946 253 946 253 946 225 c 0,6,7
 946 139 946 139 886 65 c 0,8,9
 826 -9 826 -9 724 -52 c 0,10,11
 622 -95 622 -95 501 -94 c 0,12,13
 380 -93 380 -93 278 -52 c 0,14,15
 176 -11 176 -11 116 65 c 0,16,17
 56 141 56 141 57 225 c 0,18,19
 57 251 57 251 63 278 c 1,20,21
 35 291 35 291 17 319 c 0,22,23
 -1 347 -1 347 0 378 c 0,24,25
 0 424 0 424 32 456 c 0,26,27
 64 488 64 488 111 489 c 0,28,29
 159 489 159 489 192 454 c 1,30,31
 314 539 314 539 479 544 c 1,32,-1
 544 835 l 2,33,34
 546 842 546 842 553 847 c 0,35,36
 560 852 560 852 567 849 c 2,37,-1
 773 804 l 1,38,39
 783 825 783 825 803 837 c 0,40,41
 823 849 823 849 847 850 c 0,42,43
 882 850 882 850 906 826 c 0,44,45
 930 802 930 802 931 767 c 0,46,47
 932 732 932 732 906 708 c 0,48,49
 880 684 880 684 847 683 c 0,50,51
 814 682 814 682 788 707 c 0,52,53
 762 732 762 732 764 766 c 1,54,-1
 578 808 l 1,55,-1
 520 544 l 1,56,57
 687 539 687 539 809 455 c 1,58,59
 842 489 842 489 889 489 c 0,60,61
 935 489 935 489 968 456 c 0,62,63
 1001 423 1001 423 1000 378 c 0,0,1
233 267 m 0,64,65
 233 232 233 232 258 208 c 0,66,67
 283 184 283 184 316 183 c 0,68,69
 349 182 349 182 376 208 c 0,70,71
 403 234 403 234 400 267 c 0,72,73
 397 300 397 300 376 326 c 0,74,75
 355 352 355 352 316 350 c 0,76,77
 282 350 282 350 258 325 c 0,78,79
 234 300 234 300 233 267 c 0,64,65
685 69 m 0,80,81
 691 75 691 75 691 83 c 0,82,83
 691 91 691 91 685 98 c 0,84,85
 680 103 680 103 671 103 c 0,86,87
 662 103 662 103 657 98 c 0,88,89
 634 74 634 74 589 63 c 0,90,91
 544 52 544 52 500 52 c 0,92,93
 456 52 456 52 411 63 c 0,94,95
 366 74 366 74 343 98 c 0,96,97
 337 103 337 103 329 103 c 0,98,99
 321 103 321 103 315 98 c 0,100,101
 309 92 309 92 309 84 c 0,102,103
 309 76 309 76 315 69 c 0,104,105
 339 45 339 45 381 31 c 0,106,107
 423 17 423 17 449 14 c 0,108,109
 475 11 475 11 500 12 c 0,110,111
 525 13 525 13 551 14 c 0,112,113
 577 15 577 15 619 31 c 0,114,115
 661 47 661 47 685 69 c 0,80,81
684 183 m 0,116,117
 718 183 718 183 743 208 c 0,118,119
 768 233 768 233 767 267 c 0,120,121
 767 301 767 301 742 325 c 0,122,123
 717 349 717 349 684 350 c 0,124,125
 649 350 649 350 624 326 c 0,126,127
 599 302 599 302 600 267 c 0,128,129
 601 232 601 232 624 208 c 0,130,131
 647 184 647 184 684 183 c 0,116,117
EndSplineSet
EndChar

StartChar: mail
Encoding: 17 59414 17
Width: 1000
Flags: W
LayerCount: 2
Fore
SplineSet
1000 454 m 1,0,-1
 1000 11 l 2,1,2
 1000 -26 1000 -26 974 -52 c 0,3,4
 948 -78 948 -78 911 -79 c 2,5,-1
 89 -79 l 2,6,7
 53 -79 53 -79 26 -52 c 0,8,9
 -1 -25 -1 -25 0 11 c 2,10,-1
 0 454 l 1,11,12
 25 427 25 427 56 405 c 0,13,14
 258 268 258 268 334 213 c 0,15,16
 366 189 366 189 385 176 c 0,17,18
 404 163 404 163 438 149 c 0,19,20
 472 135 472 135 499 136 c 2,21,-1
 501 136 l 2,22,23
 529 136 529 136 562 149 c 0,24,25
 595 162 595 162 615 176 c 0,26,27
 635 190 635 190 666 213 c 0,28,29
 761 281 761 281 944 405 c 0,30,31
 976 427 976 427 1000 454 c 1,0,-1
1000 618 m 0,32,33
 1000 574 1000 574 973 534 c 0,34,35
 946 494 946 494 905 465 c 0,36,37
 695 319 695 319 643 284 c 0,38,39
 638 280 638 280 620 267 c 0,40,41
 602 254 602 254 590 245 c 0,42,43
 578 236 578 236 561 227 c 0,44,45
 544 218 544 218 529 212 c 0,46,47
 514 206 514 206 501 207 c 2,48,-1
 499 207 l 2,49,50
 487 207 487 207 472 212 c 0,51,52
 457 217 457 217 440 227 c 0,53,54
 423 237 423 237 410 245 c 0,55,56
 397 253 397 253 380 267 c 0,57,58
 363 281 363 281 357 284 c 0,59,60
 306 319 306 319 210 385 c 0,61,62
 114 451 114 451 96 465 c 0,63,64
 61 488 61 488 31 529 c 0,65,66
 1 570 1 570 0 606 c 0,67,68
 0 649 0 649 23 678 c 0,69,70
 46 707 46 707 89 707 c 2,71,-1
 911 707 l 2,72,73
 947 707 947 707 974 681 c 0,74,75
 1001 655 1001 655 1000 618 c 0,32,33
EndSplineSet
EndChar

StartChar: instagram
Encoding: 18 61805 18
Width: 857
Flags: W
LayerCount: 2
Fore
SplineSet
571 350 m 0,0,1
 571 409 571 409 530 451 c 0,2,3
 489 493 489 493 429 493 c 0,4,5
 369 493 369 493 328 451 c 0,6,7
 287 409 287 409 286 350 c 0,8,9
 285 291 285 291 328 249 c 0,10,11
 371 207 371 207 429 207 c 0,12,13
 487 207 487 207 530 249 c 0,14,15
 573 291 573 291 571 350 c 0,0,1
648 350 m 0,16,17
 648 259 648 259 584 194 c 0,18,19
 520 129 520 129 429 130 c 0,20,21
 338 131 338 131 273 194 c 0,22,23
 208 257 208 257 209 350 c 0,24,25
 210 443 210 443 273 506 c 0,26,27
 336 569 336 569 429 570 c 0,28,29
 522 571 522 571 584 506 c 0,30,31
 646 441 646 441 648 350 c 0,16,17
709 579 m 0,32,33
 709 558 709 558 694 543 c 0,34,35
 679 528 679 528 657 528 c 0,36,37
 635 528 635 528 621 543 c 0,38,39
 607 558 607 558 606 579 c 0,40,41
 605 600 605 600 621 615 c 0,42,43
 637 630 637 630 657 630 c 0,44,45
 677 630 677 630 694 615 c 0,46,47
 711 600 711 600 709 579 c 0,32,33
429 702 m 0,48,49
 425 702 425 702 386 702 c 0,50,51
 347 702 347 702 327 702 c 0,52,53
 307 702 307 702 273 700 c 0,54,55
 239 698 239 698 216 695 c 0,56,57
 193 692 193 692 176 684 c 0,58,59
 148 673 148 673 127 652 c 0,60,61
 106 631 106 631 94 603 c 0,62,63
 88 587 88 587 84 563 c 0,64,65
 80 539 80 539 78 505 c 0,66,67
 76 471 76 471 77 452 c 0,68,69
 78 433 78 433 77 393 c 0,70,71
 76 353 76 353 77 350 c 0,72,73
 78 347 78 347 77 307 c 0,74,75
 76 267 76 267 77 248 c 0,76,77
 78 229 78 229 78 195 c 0,78,79
 78 161 78 161 84 137 c 0,80,81
 90 113 90 113 94 97 c 0,82,83
 106 69 106 69 127 48 c 0,84,85
 148 27 148 27 176 16 c 0,86,87
 192 10 192 10 216 5 c 0,88,89
 240 0 240 0 273 0 c 0,90,91
 306 0 306 0 327 -2 c 0,92,93
 348 -4 348 -4 386 -2 c 0,94,95
 424 0 424 0 429 -2 c 0,96,97
 434 -4 434 -4 471 -2 c 0,98,99
 508 0 508 0 530 -2 c 0,100,101
 552 -4 552 -4 584 0 c 0,102,103
 616 4 616 4 642 5 c 0,104,105
 668 6 668 6 681 16 c 1,106,107
 709 27 709 27 731 48 c 0,108,109
 753 69 753 69 763 97 c 0,110,111
 769 113 769 113 773 137 c 0,112,113
 777 161 777 161 779 195 c 0,114,115
 781 229 781 229 780 248 c 0,116,117
 779 267 779 267 780 307 c 0,118,119
 781 347 781 347 780 350 c 0,120,121
 779 353 779 353 780 393 c 0,122,123
 781 433 781 433 780 452 c 0,124,125
 779 471 779 471 779 505 c 0,126,127
 779 539 779 539 773 563 c 0,128,129
 767 587 767 587 763 603 c 0,130,131
 752 631 752 631 731 652 c 0,132,133
 710 673 710 673 681 684 c 0,134,135
 665 690 665 690 642 695 c 0,136,137
 619 700 619 700 584 700 c 0,138,139
 549 700 549 700 530 702 c 0,140,141
 511 704 511 704 471 702 c 0,142,143
 431 700 431 700 429 702 c 0,48,49
857 350 m 0,144,145
 857 222 857 222 854 173 c 0,146,147
 849 57 849 57 785 -7 c 0,148,149
 721 -71 721 -71 606 -76 c 0,150,151
 556 -79 556 -79 429 -79 c 0,152,153
 302 -79 302 -79 252 -76 c 0,154,155
 136 -70 136 -70 72 -7 c 0,156,157
 8 56 8 56 3 173 c 0,158,159
 0 222 0 222 0 350 c 0,160,161
 0 478 0 478 3 527 c 0,162,163
 8 643 8 643 72 707 c 0,164,165
 136 771 136 771 252 776 c 0,166,167
 301 779 301 779 429 779 c 0,168,169
 557 779 557 779 606 776 c 0,170,171
 722 770 722 770 785 707 c 0,172,173
 848 644 848 644 854 527 c 0,174,175
 857 478 857 478 857 350 c 0,144,145
EndSplineSet
EndChar

StartChar: mastodon
Encoding: 19 63047 19
Width: 857
Flags: W
LayerCount: 2
Fore
SplineSet
699.375 37.8125 m 0,0,1
 572.541012866 22.7201490088 572.541012866 22.7201490088 500.1875 26 c 0,2,3
 452.399086064 28.1722006334 452.399086064 28.1722006334 400.209081418 37.4075669338 c 128,-1,4
 348.019076772 46.6429332341 348.019076772 46.6429332341 323.219303999 51.8124851496 c 128,-1,5
 298.419531225 56.982037065 298.419531225 56.982037065 298.4375 52.75 c 0,6,7
 298.5035744 37.1880423884 298.5035744 37.1880423884 300.5 21.75 c 0,8,9
 304.057623524 -5.07599525042 304.057623524 -5.07599525042 313.618609691 -25.3082899824 c 128,-1,10
 323.179595858 -45.5405847145 323.179595858 -45.5405847145 339.555869476 -58.1240016842 c 128,-1,11
 355.932143093 -70.707418654 355.932143093 -70.707418654 371.920114321 -78.7538918343 c 128,-1,12
 387.908085549 -86.8003650146 387.908085549 -86.8003650146 412.900776883 -90.8369646472 c 128,-1,13
 437.893468218 -94.8735642798 437.893468218 -94.8735642798 455.53411895 -96.3244936861 c 128,-1,14
 473.174769683 -97.7754230925 473.174769683 -97.7754230925 501.4375 -98.75 c 0,15,16
 542.104166667 -100.138888889 542.104166667 -100.138888889 585.338541667 -94.5138888889 c 128,-1,17
 628.572916667 -88.8888888889 628.572916667 -88.8888888889 651.473958333 -82.5694444444 c 2,18,-1
 674.375 -76.25 l 1,19,-1
 678.125 -158.5625 l 1,20,21
 670.932655358 -162.392512077 670.932655358 -162.392512077 657.161983284 -168.24048913 c 128,-1,22
 643.39131121 -174.088466184 643.39131121 -174.088466184 597.108850049 -185.155344203 c 128,-1,23
 550.826388889 -196.222222222 550.826388889 -196.222222222 500.1875 -199 c 0,24,25
 388.386493645 -205.112381063 388.386493645 -205.112381063 268.375 -173.5 c 0,26,27
 220.450940845 -160.888405485 220.450940845 -160.888405485 182.937689393 -135.735989753 c 128,-1,28
 145.424437941 -110.583574021 145.424437941 -110.583574021 120.518039774 -74.3577602469 c 128,-1,29
 95.6116416066 -38.1319464731 95.6116416066 -38.1319464731 78.4220643928 2.40521395062 c 128,-1,30
 61.232487179 42.9423743743 61.232487179 42.9423743743 51.7263731072 94.7764990123 c 128,-1,31
 42.2202590354 146.61062365 42.2202590354 146.61062365 37.8856060595 193.963084321 c 128,-1,32
 33.5509530836 241.315544992 33.5509530836 241.315544992 32.125 299.625 c 0,33,34
 30.9285418393 348.879194283 30.9285418393 348.879194283 31.4375 430.3125 c 2,35,-1
 31.5625 471.6875 l 2,36,37
 31.5625 532.43 31.5625 532.43 46.2721875 583.6660625 c 128,-1,38
 60.981875 634.902125 60.981875 634.902125 81.9753125 664.6379375 c 128,-1,39
 102.96875 694.37375 102.96875 694.37375 123.9621875 715.4320625 c 128,-1,40
 144.955625 736.490375 144.955625 736.490375 159.6653125 744.3389375 c 2,41,-1
 174.375 752.1875 l 1,42,43
 274.849582768 798.151132915 274.849582768 798.151132915 498.5625 800 c 2,44,-1
 501.6875 800 l 2,45,46
 725.402419149 798.150217108 725.402419149 798.150217108 825.875 752.1875 c 0,47,48
 831.681075697 749.584661355 831.681075697 749.584661355 841.316884462 744.007520169 c 128,-1,49
 850.952693227 738.430378984 850.952693227 738.430378984 875.584115538 715.739479831 c 128,-1,50
 900.215537849 693.048580677 900.215537849 693.048580677 919.040884462 664.285520169 c 128,-1,51
 937.866231076 635.522459661 937.866231076 635.522459661 953.308115538 583.967479831 c 128,-1,52
 968.75 532.4125 968.75 532.4125 968.75 471.6875 c 0,53,54
 970.457352941 311.407107843 970.457352941 311.407107843 948.75 200.5 c 0,55,56
 938.216672668 146.492758043 938.216672668 146.492758043 865.149241385 97.6708915276 c 128,-1,57
 792.081810101 48.8490250121 792.081810101 48.8490250121 699.375 37.8125 c 0,0,1
800.1875 192.1875 m 1,58,-1
 800.1875 454.875 l 2,59,60
 800.25 535.4375 800.25 535.4375 758.875 582.75 c 0,61,62
 715.852722772 630.5 715.852722772 630.5 646.9375 630.5 c 0,63,64
 566.301717557 630.5 566.301717557 630.5 526.0625 569.0625 c 2,65,-1
 500 525.625 l 1,66,-1
 473.9375 569.0625 l 2,67,68
 433.698282443 630.5 433.698282443 630.5 353.125 630.5 c 0,69,70
 284.179331683 630.5 284.179331683 630.5 241.0625 582.75 c 0,71,72
 199.8125 535.375 199.8125 535.375 199.8125 454.875 c 2,73,-1
 199.8125 192.25 l 1,74,-1
 304.375 192.25 l 1,75,-1
 304.375 447.1875 l 2,76,77
 304.375 528.1875 304.375 528.1875 372.5625 528.1875 c 0,78,79
 448 528.1875 448 528.1875 448 431.875 c 2,80,-1
 448 292.25 l 1,81,-1
 552 292.25 l 1,82,-1
 552 431.8125 l 2,83,84
 552 528.125 552 528.125 627.4375 528.125 c 0,85,86
 695.625 528.125 695.625 528.125 695.625 447.1875 c 2,87,-1
 695.625 192.1875 l 1,88,-1
 800.1875 192.1875 l 1,58,-1
EndSplineSet
EndChar
